<svg xmlns="http://www.w3.org/2000/svg" width="32" height="32" viewBox="0 0 32 32">
  <defs>
    <linearGradient id="bg" x1="0%" y1="0%" x2="100%" y2="100%">
      <stop offset="0%" style="stop-color:#7c3aed"/>
      <stop offset="100%" style="stop-color:#06b6d4"/>
    </linearGradient>
  </defs>
  <rect width="32" height="32" rx="8" fill="url(#bg)"/>
  <g transform="translate(6, 6)" fill="none" stroke="white" stroke-width="1.5" stroke-linecap="round" stroke-linejoin="round">
    <path d="M10 2a6 6 0 0 1 5.2 3 6 6 0 0 1 .8 8.5 5.5 5.5 0 0 1-3 7 5 5 0 0 1-6 0 5.5 5.5 0 0 1-3-7A6 6 0 0 1 4.8 5 6 6 0 0 1 10 2Z"/>
    <path d="M10 2v18"/>
    <path d="M4.8 5C5.5 6.5 7 8 10 8"/>
    <path d="M15.2 5c-.7 1.5-2.2 3-5.2 3"/>
    <path d="M4 13.5c1.5-.5 3.5-.5 6 1"/>
    <path d="M16 13.5c-1.5-.5-3.5-.5-6 1"/>
  </g>
</svg>
